/* XPM */ 
static const unsigned char * allforonebusiness16_xpm[] = {
"16 16 3 1",
" 	c None",
"!	c black",
"#	c #D79B1B",
"                ",
"                ",
"      ##        ",
"      ###       ",
"     ####       ",
"      ####      ",
"      ####      ",
"    ## ####     ",
"   #########    ",
"    ########    ",
"  ###########   ",
" ############   ",
" ######## ####  ",
" #### ##  ##### ",
"   #        ##  ",
"                "};