/* XPM */ 
static const unsigned char * allforonebusiness32_xpm[] = {
"32 32 8 1",
" 	c None",
"!	c black",
"#	c #D79B1B",
"$	c #D59A1A",
"%	c #D4991A",
"&	c #D89B1B",
"'	c #D5991A",
"(	c #D4981A",
"                                ",
"                                ",
"             ##                 ",
"            $##                 ",
"            ####                ",
"           #####%               ",
"           ######               ",
"          ########              ",
"          ########              ",
"          #########             ",
"           #########            ",
"           #########            ",
"            #########           ",
"             ########           ",
"             ########&          ",
"       #####  ########          ",
"      #################         ",
"      ##################        ",
"       #################        ",
"       ##################       ",
"        #################       ",
"   #######################      ",
"  '########################     ",
" ################# ########     ",
" ################# &#######&    ",
" ################   ########    ",
" ######### $#####   #########   ",
" #########  ####(    &#######$  ",
"  #######    ##%      ########  ",
"   #####     ##       ######### ",
"                                ",
"                                "};