/* XPM */ 
static const unsigned char * allforonebusiness64_xpm[] = {
"64 64 10 1",
" 	c None",
"!	c black",
"#	c #D79B1B",
"$	c #D89C1B",
"%	c #D5991A",
"&	c #D4981A",
"'	c #D69A1A",
"(	c #D0961A",
")	c #C68F18",
"*	c #CD9419",
"                                                                ",
"                                                                ",
"                           #                                    ",
"                           ##                                   ",
"                          $##                                   ",
"                          ####                                  ",
"                         $####                                  ",
"                         ######                                 ",
"                        ########                                ",
"                       #########                                ",
"                       ##########                               ",
"                      ###########                               ",
"                      ############                              ",
"                     ##############                             ",
"                     ##############                             ",
"                    $##############$                            ",
"                    ################                            ",
"                    #################                           ",
"                    %#################                          ",
"                     #################                          ",
"                      #################                         ",
"                      #################                         ",
"                       #################                        ",
"                       %################&                       ",
"                        $################                       ",
"                         #################                      ",
"                         #################                      ",
"                          #################                     ",
"                          '################&                    ",
"                           #################                    ",
"                ######      #################                   ",
"             ############   #################                   ",
"           (###############  ################$                  ",
"           $###################################                 ",
"            ###################################                 ",
"            ####################################                ",
"             ###################################                ",
"             ####################################               ",
"              ###################################               ",
"               ###################################              ",
"               ####################################             ",
"                ###################################             ",
"        #####)  ####################################            ",
"      #'#####$## ###################################            ",
"    ############################### #################           ",
"    ###############################  #################          ",
"   ################################  #################          ",
"  #################################   #################         ",
"  #################################   #################         ",
"  #################################    #################        ",
" ################### ##############    ##################       ",
" ###################  #############     #################       ",
" ###################  ############       #################      ",
"  ##################   ###########       #################      ",
"  ##################   ##########         ################$     ",
"  ##################    #########         ##################    ",
"   ################      #######           #################    ",
"    ##############       ######             #################   ",
"     ##########$#         ####              #################   ",
"      #########*          ###                #################  ",
"        ######             #                         #########  ",
"                                                                ",
"                                                                ",
"                                                                "};