/* XPM */ 
static const unsigned char * allforonebusiness128_xpm[] = {
"128 128 16 1",
" 	c None",
"!	c black",
"#	c #D79B1B",
"$	c #DB9E1B",
"%	c #D69A1A",
"&	c #D5991A",
"'	c #D99C1B",
"(	c #C79019",
")	c #DA9D1B",
"*	c #D99D1B",
"+	c #D4981A",
",	c #A67814",
"-	c #D3981A",
".	c #BA8617",
"0	c #D89C1B",
"1	c #D1961A",
"                                                                                                                                ",
"                                                                                                                                ",
"                                                                                                                                ",
"                                                                                                                                ",
"                                                      ##                                                                        ",
"                                                      ###                                                                       ",
"                                                     ####                                                                       ",
"                                                     #####                                                                      ",
"                                                    ######                                                                      ",
"                                                    #######                                                                     ",
"                                                   ########                                                                     ",
"                                                   #########                                                                    ",
"                                                  ###########                                                                   ",
"                                                  ###########                                                                   ",
"                                                 $############                                                                  ",
"                                                 %############                                                                  ",
"                                                ###############                                                                 ",
"                                                ###############&                                                                ",
"                                               #################                                                                ",
"                                               ##################                                                               ",
"                                              ###################                                                               ",
"                                              ####################                                                              ",
"                                             ######################                                                             ",
"                                            #######################                                                             ",
"                                            ########################                                                            ",
"                                           #########################                                                            ",
"                                           ##########################                                                           ",
"                                          ############################                                                          ",
"                                          ############################                                                          ",
"                                         ##############################                                                         ",
"                                         ##############################                                                         ",
"                                         ###############################                                                        ",
"                                        #################################                                                       ",
"                                        #################################                                                       ",
"                                        ##################################                                                      ",
"                                         #################################                                                      ",
"                                         ##################################                                                     ",
"                                         ###################################                                                    ",
"                                          ##################################                                                    ",
"                                          ##################################'                                                   ",
"                                           #################################%                                                   ",
"                                            ##################################                                                  ",
"                                            ##################################                                                  ",
"                                             ##################################                                                 ",
"                                             ###################################                                                ",
"                                              ##################################                                                ",
"                                               ##################################                                               ",
"                                               ##################################                                               ",
"                                                ##################################                                              ",
"                                                ###################################                                             ",
"                                                 ##################################                                             ",
"                                                  ##################################                                            ",
"                                                  ##################################                                            ",
"                                                   #################################'                                           ",
"                                                   ###################################                                          ",
"                                                    ##################################                                          ",
"                                                     ##################################                                         ",
"                                                     ##################################                                         ",
"                                                      ##################################                                        ",
"                                                      %##################################                                       ",
"                                                       ##################################                                       ",
"                              ################          %#################################                                      ",
"                           ######################       $#################################                                      ",
"                        ###########################      ##################################                                     ",
"                      ###############################    ###################################                                    ",
"                     #################################(   ##################################                                    ",
"                     #################################)##  ##################################                                   ",
"                      ################################%### ##################################                                   ",
"                       #################################### ##################################                                  ",
"                       ########################################################################                                 ",
"                        #######################################################################                                 ",
"                        ########################################################################                                ",
"                         #######################################################################                                ",
"                          %######################################################################                               ",
"                          *#######################################################################                              ",
"                           #######################################################################                              ",
"                           ########################################################################                             ",
"                            #######################################################################                             ",
"                             #######################################################################                            ",
"                             #######################################################################                            ",
"                              #######################################################################                           ",
"                              +#######################################################################                          ",
"                               #######################################################################                          ",
"                                %######################################################################                         ",
"                  ,######       )######################################################################                         ",
"               ##########-###    #######################################################################                        ",
"            ##################.  ########################################################################                       ",
"           ###################)#  #################################### ##################################                       ",
"          ####################%### ###################################  ##################################                      ",
"        ############################################################### ##################################                      ",
"       ################################################################  ##################################                     ",
"       ################################################################  ###################################                    ",
"      #################################################################   ##################################                    ",
"     ##################################################################    ##################################                   ",
"     ##################################################################    ##################################                   ",
"    ###################################################################     ##################################                  ",
"    ###################################################################     ###################################                 ",
"   ####################################################################      ##################################                 ",
"   ##################################### #############################        ##################################                ",
"   ##################################### #############################        ##################################                ",
"   #####################################  ############################         ##################################               ",
"   ###################################### ############################         ###################################              ",
"   ######################################  ###########################          ##################################              ",
"   ######################################  ##########################            ##################################             ",
"   ######################################   #########################            ##################################             ",
"   #####################################%    ########################             ##################################            ",
"   #####################################     #######################              ###################################           ",
"   #####################################      0#####################               ##################################           ",
"   #####################################      1####################                ###################################          ",
"    ####################################       ####################                 ##################################          ",
"    ###################################         ##################                   ##################################         ",
"     ##################################         #################                    ##################################         ",
"     #################################           ################                     ##################################        ",
"      ################################           ###############                      ###################################       ",
"      ###############################             #############                        ##################################       ",
"       #############################               ###########                          ##################################      ",
"        ###########################                ##########                           ##################################      ",
"         #########################                  ########                             ##################################     ",
"          #######################                   +%#####                               ##################################    ",
"            ###################                      )####                                 #################################    ",
"              ################                        ###                                    ################################   ",
"                ###########                           #                                                                         ",
"                                                                                                                                ",
"                                                                                                                                ",
"                                                                                                                                ",
"                                                                                                                                ",
"                                                                                                                                ",
"                                                                                                                                "};